<svg id="Kid_avatar" height="512" viewBox="0 0 64 64" width="512" xmlns="http://www.w3.org/2000/svg" data-name="Kid avatar"><g fill="#78b9eb"><path d="m42 41.84v1.16a4 4 0 0 1 -4 4h-6a6 6 0 0 0 6-5.99 12.092 12.092 0 0 1 4 .83z"/><path d="m32 47h-7a3 3 0 0 1 -3-3v-2.16a12.039 12.039 0 0 1 4-.83 6 6 0 0 0 6 5.99z"/><path d="m49.54 52h-7.54l1 9h-22l1-9h-7.54a11.975 11.975 0 0 1 7.54-10.16v2.16a3 3 0 0 0 3 3h13a4 4 0 0 0 4-4v-1.16a11.975 11.975 0 0 1 7.54 10.16z"/><path d="m46 23-3-7-8 2-14-2-3 7h-1.5a2.737 2.737 0 0 0 -.5.04v-4.04a15.916 15.916 0 0 1 2.24-8.13 9.985 9.985 0 0 1 -3.85-4.83l-.39-1.04 14.55-1.62a16.281 16.281 0 0 1 3.45-.38 16 16 0 0 1 16 16v4.04a2.737 2.737 0 0 0 -.5-.04z"/></g><path d="m40.51 40.34a15.051 15.051 0 0 0 6.19-9.34h.8a4.507 4.507 0 0 0 4.5-4.5 4.4 4.4 0 0 0 -1.32-3.17 4.442 4.442 0 0 0 -1.68-1.06v-3.27a17.024 17.024 0 0 0 -17-17 16.57 16.57 0 0 0 -3.61.4l-14.5 1.61a.958.958 0 0 0 -.74.47 1.023 1.023 0 0 0 -.09.87l.39 1.04a11.042 11.042 0 0 0 3.48 4.77 17.02 17.02 0 0 0 -1.93 7.84v3.27a4.5 4.5 0 0 0 -3 4.23 4.507 4.507 0 0 0 4.5 4.5h.8a15.051 15.051 0 0 0 6.19 9.34 13.082 13.082 0 0 0 -10.06 12.01l-.43 8.6a1.025 1.025 0 0 0 .28.74.975.975 0 0 0 .72.31h36a.975.975 0 0 0 .72-.31 1.025 1.025 0 0 0 .28-.74l-.43-8.6a13.082 13.082 0 0 0 -10.06-12.01zm.49 2.21v.45a3.009 3.009 0 0 1 -3 3h-1.11a7.012 7.012 0 0 0 2.02-3.91 10.379 10.379 0 0 1 2.09.46zm8.27-17.81a2.465 2.465 0 0 1 .73 1.76 2.5 2.5 0 0 1 -2.5 2.5h-.55c.02-.33.05-.66.05-1v-4h.5a2.474 2.474 0 0 1 1.77.74zm-32.77 4.26a2.5 2.5 0 0 1 -2.5-2.5 2.509 2.509 0 0 1 2.5-2.5h.5v4c0 .34.03.67.05 1zm.5-7v-3a14.968 14.968 0 0 1 2.1-7.62 1 1 0 0 0 -.31-1.35 8.876 8.876 0 0 1 -3.4-4.18l13.27-1.47c.03-.01.07-.01.1-.02a14.976 14.976 0 0 1 18.24 14.64v3h-.34l-2.74-6.39a1 1 0 0 0 -1.16-.58l-7.81 1.95-13.81-1.97a1 1 0 0 0 -1.06.6l-2.74 6.39zm21-2a6.007 6.007 0 0 0 -5.91 5h-.18a5.99 5.99 0 0 0 -11.54-1.05l-1.18-1.18 2.43-5.67 13.24 1.89a.966.966 0 0 0 .38-.02l7.18-1.79 2.39 5.59-1.18 1.18a6 6 0 0 0 -5.63-3.95zm4 6a4 4 0 1 1 -4-4 4 4 0 0 1 4 4zm-12 0a4 4 0 1 1 -4-4 4 4 0 0 1 4 4zm-11 2v-2.59l1.02 1.03a5.994 5.994 0 0 0 11.89.56h.18a5.994 5.994 0 0 0 11.89-.56l1.02-1.03v2.59a13 13 0 0 1 -26 0zm17.84 14.18a4.976 4.976 0 0 1 -9.68 0 14.694 14.694 0 0 0 9.68 0zm-13.84.37a10.379 10.379 0 0 1 2.09-.46 7.012 7.012 0 0 0 2.02 3.91h-2.11a2.006 2.006 0 0 1 -2-2zm-2.9 17.45h-5.05l.35-7h5.48zm21.78 0h-19.76l.87-7.89a1 1 0 0 0 -.24-.78 1.022 1.022 0 0 0 -.75-.33h-6.39a11.089 11.089 0 0 1 5.39-7.55v.55a4 4 0 0 0 4 4h13a5 5 0 0 0 4.96-4.58 11.124 11.124 0 0 1 5.43 7.58h-6.39a1.022 1.022 0 0 0 -.75.33 1 1 0 0 0 -.24.78zm2.02 0-.78-7h5.48l.35 7z" fill="#006df0"/><path d="m37 25v2a1 1 0 0 0 2 0v-2a1 1 0 0 0 -2 0z" fill="#006df0"/><path d="m25 25v2a1 1 0 0 0 2 0v-2a1 1 0 0 0 -2 0z" fill="#006df0"/><path d="m39 34h-2c0 1.626-2.29 3-5 3s-5-1.374-5-3h-2c0 2.8 3.075 5 7 5s7-2.2 7-5z" fill="#006df0"/></svg>