<?xml version="1.0" encoding="iso-8859-1"?>
<!-- Generator: Adobe Illustrator 19.0.0, SVG Export Plug-In . SVG Version: 6.00 Build 0)  -->
<svg version="1.1" id="Capa_1" xmlns="http://www.w3.org/2000/svg" xmlns:xlink="http://www.w3.org/1999/xlink" x="0px" y="0px"
	 viewBox="0 0 480 480" style="enable-background:new 0 0 480 480;" xml:space="preserve">
<g>
	
		<linearGradient id="SVGID_1_" gradientUnits="userSpaceOnUse" x1="-59.432" y1="606.625" x2="5.185" y2="606.625" gradientTransform="matrix(8 0 0 -8 455 4941)">
		<stop  offset="0" style="stop-color:#00A2CC"/>
		<stop  offset="1" style="stop-color:#2B32B2"/>
	</linearGradient>
	<path style="fill:url(#SVGID_1_);" d="M56,176h64v-56h56V56h-56V0H56v56H0v64h56V176z M16,104V72h56V16h32v56h56v32h-56v56H72v-56
		H16z"/>
	
		<linearGradient id="SVGID_2_" gradientUnits="userSpaceOnUse" x1="-59.432" y1="606.625" x2="5.185" y2="606.625" gradientTransform="matrix(8 0 0 -8 455 4941)">
		<stop  offset="0" style="stop-color:#00A2CC"/>
		<stop  offset="1" style="stop-color:#2B32B2"/>
	</linearGradient>
	<path style="fill:url(#SVGID_2_);" d="M304,120h176V56H304V120z M320,72h144v32H320V72z"/>
</g>
<g>
	
		<linearGradient id="SVGID_3_" gradientUnits="userSpaceOnUse" x1="-59.432" y1="570.625" x2="5.185" y2="570.625" gradientTransform="matrix(8 0 0 -8 455 4941)">
		<stop  offset="0" style="stop-color:#00A2CC"/>
		<stop  offset="1" style="stop-color:#2B32B2"/>
	</linearGradient>
	<path style="fill:url(#SVGID_3_);" d="M304,408h176v-64H304V408z M320,360h144v32H320V360z"/>
	
		<linearGradient id="SVGID_4_" gradientUnits="userSpaceOnUse" x1="-59.432" y1="579.625" x2="5.185" y2="579.625" gradientTransform="matrix(8 0 0 -8 455 4941)">
		<stop  offset="0" style="stop-color:#00A2CC"/>
		<stop  offset="1" style="stop-color:#2B32B2"/>
	</linearGradient>
	<path style="fill:url(#SVGID_4_);" d="M360,304c0,17.673,14.327,32,32,32s32-14.327,32-32s-14.327-32-32-32S360,286.327,360,304z
		 M408,304c0,8.837-7.163,16-16,16s-16-7.163-16-16s7.163-16,16-16S408,295.163,408,304z"/>
	
		<linearGradient id="SVGID_5_" gradientUnits="userSpaceOnUse" x1="-59.432" y1="561.625" x2="5.185" y2="561.625" gradientTransform="matrix(8 0 0 -8 455 4941)">
		<stop  offset="0" style="stop-color:#00A2CC"/>
		<stop  offset="1" style="stop-color:#2B32B2"/>
	</linearGradient>
	<path style="fill:url(#SVGID_5_);" d="M424,448c0-17.673-14.327-32-32-32s-32,14.327-32,32s14.327,32,32,32S424,465.673,424,448z
		 M376,448c0-8.837,7.163-16,16-16s16,7.163,16,16s-7.163,16-16,16S376,456.837,376,448z"/>
	
		<linearGradient id="SVGID_6_" gradientUnits="userSpaceOnUse" x1="-59.432" y1="587.625" x2="5.185" y2="587.625" gradientTransform="matrix(8 0 0 -8 455 4941)">
		<stop  offset="0" style="stop-color:#00A2CC"/>
		<stop  offset="1" style="stop-color:#2B32B2"/>
	</linearGradient>
	<path style="fill:url(#SVGID_6_);" d="M232,88v144H88v16h144v144h16V248h144v-16H248V88H232z"/>
	
		<linearGradient id="SVGID_7_" gradientUnits="userSpaceOnUse" x1="-59.432" y1="571.625" x2="5.185" y2="571.625" gradientTransform="matrix(8 0 0 -8 455 4941)">
		<stop  offset="0" style="stop-color:#00A2CC"/>
		<stop  offset="1" style="stop-color:#2B32B2"/>
	</linearGradient>
	<path style="fill:url(#SVGID_7_);" d="M56,459.312l40-40l40,40L187.312,408l-40-40l40-40L136,276.688l-40,40l-39.936-39.936
		L4.688,326.976l40.064,40.96L4.688,408L56,459.312z M27.312,327.2l28.624-28L96,339.312l40-40L164.688,328l-40,40l40,40
		L136,436.688l-40-40l-40,40L27.312,408l39.936-39.936L27.312,327.2z"/>
</g>
<g>
</g>
<g>
</g>
<g>
</g>
<g>
</g>
<g>
</g>
<g>
</g>
<g>
</g>
<g>
</g>
<g>
</g>
<g>
</g>
<g>
</g>
<g>
</g>
<g>
</g>
<g>
</g>
<g>
</g>
</svg>
